<svg width="166" height="166" viewBox="0 0 166 166" fill="none" xmlns="http://www.w3.org/2000/svg">
<circle cx="83" cy="83" r="82" stroke="#FB3640" stroke-width="2"/>
<path d="M71.16 105.896C82.744 105.896 89.4 96.424 89.4 82.6C89.4 68.776 82.744 59.304 71.16 59.304C59.576 59.304 52.92 68.776 52.92 82.6C52.92 96.424 59.576 105.896 71.16 105.896ZM71.16 95.912C65.784 95.912 63.16 91.24 63.16 82.6C63.16 73.96 65.784 69.288 71.16 69.288C76.536 69.288 79.16 73.96 79.16 82.6C79.16 91.24 76.536 95.912 71.16 95.912ZM102.415 60.2L90.7025 64.424L93.1985 73.192L101.135 71.016V105H111.375V60.2H102.415Z" fill="#FB3640"/>
</svg>
