<svg width="166" height="166" viewBox="0 0 166 166" fill="none" xmlns="http://www.w3.org/2000/svg">
<circle cx="83" cy="83" r="82" stroke="#FB3640" stroke-width="2"/>
<path d="M66.16 105.896C77.744 105.896 84.4 96.424 84.4 82.6C84.4 68.776 77.744 59.304 66.16 59.304C54.576 59.304 47.92 68.776 47.92 82.6C47.92 96.424 54.576 105.896 66.16 105.896ZM66.16 95.912C60.784 95.912 58.16 91.24 58.16 82.6C58.16 73.96 60.784 69.288 66.16 69.288C71.536 69.288 74.16 73.96 74.16 82.6C74.16 91.24 71.536 95.912 66.16 95.912ZM86.4705 105H116.935V95.144H101.895L109.319 87.656C113.415 83.56 116.295 78.952 116.295 73.576C116.295 64.552 109.127 59.304 101.127 59.304C94.9185 59.304 88.9025 62.44 86.0225 69.096L94.6625 74.152C95.8785 71.336 98.1185 69.288 101.255 69.288C104.263 69.288 106.055 71.208 106.055 74.024C106.055 76.648 104.135 79.272 101.51 81.96L86.4705 97.576V105Z" fill="#FB3640"/>
</svg>
