<svg width="166" height="166" viewBox="0 0 166 166" fill="none" xmlns="http://www.w3.org/2000/svg">
<circle cx="83" cy="83" r="82" stroke="#FB3640" stroke-width="2"/>
<path d="M66.16 105.896C77.744 105.896 84.4 96.424 84.4 82.6C84.4 68.776 77.744 59.304 66.16 59.304C54.576 59.304 47.92 68.776 47.92 82.6C47.92 96.424 54.576 105.896 66.16 105.896ZM66.16 95.912C60.784 95.912 58.16 91.24 58.16 82.6C58.16 73.96 60.784 69.288 66.16 69.288C71.536 69.288 74.16 73.96 74.16 82.6C74.16 91.24 71.536 95.912 66.16 95.912ZM108.119 78.376L115.863 68.52V60.2H87.063V69.8H103.447L95.319 80.104L99.223 85.928H101.335C105.559 85.928 107.415 88.168 107.415 90.92C107.415 93.672 105.559 95.912 101.335 95.912C97.431 95.912 95.511 94.12 94.487 91.176L85.655 96.296C88.407 102.888 94.551 105.896 101.335 105.896C109.975 105.896 117.655 100.776 117.655 90.92C117.655 84.712 113.623 80.296 108.119 78.376Z" fill="#FB3640"/>
</svg>
