<svg width="166" height="166" viewBox="0 0 166 166" fill="none" xmlns="http://www.w3.org/2000/svg">
<circle cx="83" cy="83" r="82" stroke="#FB3640" stroke-width="2"/>
<path d="M64.16 105.896C75.744 105.896 82.4 96.424 82.4 82.6C82.4 68.776 75.744 59.304 64.16 59.304C52.576 59.304 45.92 68.776 45.92 82.6C45.92 96.424 52.576 105.896 64.16 105.896ZM64.16 95.912C58.784 95.912 56.16 91.24 56.16 82.6C56.16 73.96 58.784 69.288 64.16 69.288C69.536 69.288 72.16 73.96 72.16 82.6C72.16 91.24 69.536 95.912 64.16 95.912ZM120.793 88.36H116.312V78.76H105.945V88.36H96.6005L110.873 60.2H99.8645L85.5925 88.36V97.832H105.945V105H116.312V97.832H120.793V88.36Z" fill="#FB3640"/>
</svg>
