<svg width="231" height="59" viewBox="0 0 231 59" fill="none" xmlns="http://www.w3.org/2000/svg">
<circle cx="28" cy="31" r="28" fill="#FB3640" fill-opacity="0.2"/>
<path d="M38.24 46H46.64L35.216 12.4H25.424L14 46H22.4L24.08 40.72H36.56L38.24 46ZM26.384 33.52L30.32 21.184L34.256 33.52H26.384ZM63.617 21.328C60.401 21.328 58.049 22.432 56.465 24.256V12.4H49.265V46H56.465V43.744C58.049 45.568 60.401 46.672 63.617 46.672C69.905 46.672 75.089 41.152 75.089 34C75.089 26.848 69.905 21.328 63.617 21.328ZM62.177 39.856C58.865 39.856 56.465 37.6 56.465 34C56.465 30.4 58.865 28.144 62.177 28.144C65.489 28.144 67.889 30.4 67.889 34C67.889 37.6 65.489 39.856 62.177 39.856ZM90.6913 46.672C97.7473 46.672 103.411 41.152 103.411 34C103.411 26.848 97.7473 21.328 90.6913 21.328C83.6353 21.328 77.9713 26.848 77.9713 34C77.9713 41.152 83.6353 46.672 90.6913 46.672ZM90.6913 39.664C87.5713 39.664 85.1713 37.408 85.1713 34C85.1713 30.592 87.5713 28.336 90.6913 28.336C93.8113 28.336 96.2113 30.592 96.2113 34C96.2113 37.408 93.8113 39.664 90.6913 39.664ZM122.988 22V35.104C122.988 38.512 121.164 40.048 118.524 40.048C116.22 40.048 114.348 38.656 114.348 35.68V22H107.148V36.736C107.148 43.216 111.276 46.672 116.124 46.672C119.292 46.672 121.692 45.52 122.988 43.744V46H130.188V22H122.988ZM149.532 28.912V22H144.588V15.28L137.388 17.44V22H133.548V28.912H137.388V37.408C137.388 44.128 140.124 46.96 149.532 46V39.472C146.364 39.664 144.588 39.472 144.588 37.408V28.912H149.532ZM199.918 12.4H192.238L183.118 27.328L173.998 12.4H166.318V46H173.998V26.464L182.686 40.72H183.55L192.238 26.464V46H199.918V12.4ZM211.885 36.88H228.925C229.117 35.968 229.213 35.008 229.213 34C229.213 26.752 224.029 21.328 217.021 21.328C209.437 21.328 204.253 26.848 204.253 34C204.253 41.152 209.341 46.672 217.549 46.672C222.109 46.672 225.661 44.992 228.013 41.728L222.253 38.416C221.293 39.472 219.613 40.24 217.645 40.24C215.005 40.24 212.797 39.376 211.885 36.88ZM211.741 31.504C212.413 29.056 214.237 27.712 216.973 27.712C219.133 27.712 221.293 28.72 222.061 31.504H211.741Z" fill="#424642"/>
</svg>
