<svg width="240" height="59" viewBox="0 0 240 59" fill="none" xmlns="http://www.w3.org/2000/svg">
<circle cx="28" cy="29" r="28" fill="#FB3640" fill-opacity="0.2"/>
<path d="M25.56 38.608V32.656H37.56V25.36H25.56V19.792H38.76V12.4H17.88V46H39V38.608H25.56ZM60.0484 12.4V24.256C58.4644 22.432 56.1124 21.328 52.8964 21.328C46.6084 21.328 41.4244 26.848 41.4244 34C41.4244 41.152 46.6084 46.672 52.8964 46.672C56.1124 46.672 58.4644 45.568 60.0484 43.744V46H67.2484V12.4H60.0484ZM54.3364 39.856C51.0244 39.856 48.6244 37.6 48.6244 34C48.6244 30.4 51.0244 28.144 54.3364 28.144C57.6484 28.144 60.0484 30.4 60.0484 34C60.0484 37.6 57.6484 39.856 54.3364 39.856ZM88.0346 22V35.104C88.0346 38.512 86.2106 40.048 83.5706 40.048C81.2666 40.048 79.3946 38.656 79.3946 35.68V22H72.1946V36.736C72.1946 43.216 76.3226 46.672 81.1706 46.672C84.3386 46.672 86.7386 45.52 88.0346 43.744V46H95.2346V22H88.0346ZM112.035 46.672C116.739 46.672 120.819 44.224 122.883 40.48L116.595 36.88C115.827 38.56 114.051 39.568 111.939 39.568C108.819 39.568 106.515 37.312 106.515 34C106.515 30.688 108.819 28.432 111.939 28.432C114.051 28.432 115.779 29.44 116.595 31.12L122.883 27.472C120.819 23.776 116.691 21.328 112.035 21.328C104.739 21.328 99.315 26.848 99.315 34C99.315 41.152 104.739 46.672 112.035 46.672ZM142.736 22V24.256C141.152 22.432 138.8 21.328 135.584 21.328C129.296 21.328 124.112 26.848 124.112 34C124.112 41.152 129.296 46.672 135.584 46.672C138.8 46.672 141.152 45.568 142.736 43.744V46H149.936V22H142.736ZM137.024 39.856C133.712 39.856 131.312 37.6 131.312 34C131.312 30.4 133.712 28.144 137.024 28.144C140.336 28.144 142.736 30.4 142.736 34C142.736 37.6 140.336 39.856 137.024 39.856ZM169.282 28.912V22H164.338V15.28L157.138 17.44V22H153.298V28.912H157.138V37.408C157.138 44.128 159.874 46.96 169.282 46V39.472C166.114 39.664 164.338 39.472 164.338 37.408V28.912H169.282ZM176.959 19.888C179.311 19.888 181.279 17.92 181.279 15.568C181.279 13.216 179.311 11.248 176.959 11.248C174.607 11.248 172.639 13.216 172.639 15.568C172.639 17.92 174.607 19.888 176.959 19.888ZM173.359 46H180.559V22H173.359V46ZM197.348 46.672C204.404 46.672 210.068 41.152 210.068 34C210.068 26.848 204.404 21.328 197.348 21.328C190.292 21.328 184.628 26.848 184.628 34C184.628 41.152 190.292 46.672 197.348 46.672ZM197.348 39.664C194.228 39.664 191.828 37.408 191.828 34C191.828 30.592 194.228 28.336 197.348 28.336C200.468 28.336 202.868 30.592 202.868 34C202.868 37.408 200.468 39.664 197.348 39.664ZM228.204 21.328C225.036 21.328 222.636 22.48 221.34 24.256V22H214.14V46H221.34V32.896C221.34 29.488 223.164 27.952 225.804 27.952C228.108 27.952 229.98 29.344 229.98 32.32V46H237.18V31.264C237.18 24.784 233.052 21.328 228.204 21.328Z" fill="#424642"/>
</svg>
