<svg width="201" height="59" viewBox="0 0 201 59" fill="none" xmlns="http://www.w3.org/2000/svg">
<circle cx="28" cy="29" r="28" fill="#FB3640" fill-opacity="0.2"/>
<path d="M28.64 46.672C35.936 46.672 41.12 42.832 41.12 36.352C41.12 29.248 35.408 27.472 30.32 25.936C25.088 24.352 24.272 23.296 24.272 21.76C24.272 20.416 25.472 19.216 27.872 19.216C30.944 19.216 32.528 20.704 33.68 23.104L40.16 19.312C37.712 14.368 33.392 11.728 27.872 11.728C22.064 11.728 16.592 15.472 16.592 21.952C16.592 28.384 21.488 30.784 26.48 32.176C31.52 33.568 33.44 34.384 33.44 36.448C33.44 37.744 32.528 39.184 28.88 39.184C25.088 39.184 23.024 37.312 21.824 34.528L15.2 38.368C17.072 43.312 21.584 46.672 28.64 46.672ZM51.8533 36.88H68.8933C69.0853 35.968 69.1813 35.008 69.1813 34C69.1813 26.752 63.9973 21.328 56.9893 21.328C49.4053 21.328 44.2213 26.848 44.2213 34C44.2213 41.152 49.3093 46.672 57.5173 46.672C62.0773 46.672 65.6293 44.992 67.9813 41.728L62.2213 38.416C61.2613 39.472 59.5813 40.24 57.6133 40.24C54.9733 40.24 52.7653 39.376 51.8533 36.88ZM51.7093 31.504C52.3813 29.056 54.2053 27.712 56.9413 27.712C59.1013 27.712 61.2613 28.72 62.0293 31.504H51.7093ZM80.465 26.272V22H73.265V46H80.465V35.152C80.465 30.4 84.689 29.2 87.665 29.68V21.52C84.641 21.52 81.425 23.056 80.465 26.272ZM106.343 22L101.351 37.216L96.3586 22H88.3906L97.2706 46H105.431L114.311 22H106.343ZM120.553 19.888C122.905 19.888 124.873 17.92 124.873 15.568C124.873 13.216 122.905 11.248 120.553 11.248C118.201 11.248 116.233 13.216 116.233 15.568C116.233 17.92 118.201 19.888 120.553 19.888ZM116.953 46H124.153V22H116.953V46ZM140.941 46.672C145.645 46.672 149.725 44.224 151.789 40.48L145.501 36.88C144.733 38.56 142.957 39.568 140.845 39.568C137.725 39.568 135.421 37.312 135.421 34C135.421 30.688 137.725 28.432 140.845 28.432C142.957 28.432 144.685 29.44 145.501 31.12L151.789 27.472C149.725 23.776 145.597 21.328 140.941 21.328C133.645 21.328 128.221 26.848 128.221 34C128.221 41.152 133.645 46.672 140.941 46.672ZM160.65 36.88H177.69C177.882 35.968 177.978 35.008 177.978 34C177.978 26.752 172.794 21.328 165.786 21.328C158.202 21.328 153.018 26.848 153.018 34C153.018 41.152 158.106 46.672 166.314 46.672C170.874 46.672 174.426 44.992 176.778 41.728L171.018 38.416C170.058 39.472 168.378 40.24 166.41 40.24C163.77 40.24 161.562 39.376 160.65 36.88ZM160.506 31.504C161.178 29.056 163.002 27.712 165.738 27.712C167.898 27.712 170.058 28.72 170.826 31.504H160.506ZM187.94 29.008C187.94 28.144 188.708 27.664 189.956 27.664C191.54 27.664 192.5 28.528 193.172 29.776L199.316 26.464C197.3 23.056 193.844 21.328 189.956 21.328C184.964 21.328 180.548 23.968 180.548 29.2C180.548 37.504 192.356 36.112 192.356 38.752C192.356 39.712 191.492 40.24 189.764 40.24C187.652 40.24 186.308 39.232 185.684 37.408L179.444 40.96C181.316 44.848 184.964 46.672 189.764 46.672C194.948 46.672 199.748 44.32 199.748 38.8C199.748 29.92 187.94 31.744 187.94 29.008Z" fill="#424642"/>
</svg>
