<svg width="538" height="48" viewBox="0 0 538 48" fill="none" xmlns="http://www.w3.org/2000/svg">
<path d="M122 4.32187C128.413 4.32187 129.172 4.35 131.694 4.4625C134.038 4.56562 135.303 4.95938 136.147 5.2875C137.263 5.71875 138.069 6.24375 138.903 7.07812C139.747 7.92188 140.263 8.71875 140.694 9.83438C141.022 10.6781 141.416 11.9531 141.519 14.2875C141.631 16.8187 141.659 17.5781 141.659 23.9813C141.659 30.3938 141.631 31.1531 141.519 33.675C141.416 36.0188 141.022 37.2844 140.694 38.1281C140.263 39.2438 139.738 40.05 138.903 40.8844C138.059 41.7281 137.263 42.2438 136.147 42.675C135.303 43.0031 134.028 43.3969 131.694 43.5C129.163 43.6125 128.403 43.6406 122 43.6406C115.588 43.6406 114.828 43.6125 112.306 43.5C109.963 43.3969 108.697 43.0031 107.853 42.675C106.738 42.2438 105.931 41.7188 105.097 40.8844C104.253 40.0406 103.738 39.2438 103.306 38.1281C102.978 37.2844 102.584 36.0094 102.481 33.675C102.369 31.1438 102.341 30.3844 102.341 23.9813C102.341 17.5688 102.369 16.8094 102.481 14.2875C102.584 11.9437 102.978 10.6781 103.306 9.83438C103.738 8.71875 104.263 7.9125 105.097 7.07812C105.941 6.23438 106.738 5.71875 107.853 5.2875C108.697 4.95938 109.972 4.56562 112.306 4.4625C114.828 4.35 115.588 4.32187 122 4.32187ZM122 0C115.484 0 114.669 0.028125 112.109 0.140625C109.559 0.253125 107.806 0.665625 106.288 1.25625C104.703 1.875 103.363 2.69062 102.031 4.03125C100.691 5.3625 99.875 6.70313 99.2563 8.27813C98.6656 9.80625 98.2531 11.55 98.1406 14.1C98.0281 16.6687 98 17.4844 98 24C98 30.5156 98.0281 31.3313 98.1406 33.8906C98.2531 36.4406 98.6656 38.1938 99.2563 39.7125C99.875 41.2969 100.691 42.6375 102.031 43.9688C103.363 45.3 104.703 46.125 106.278 46.7344C107.806 47.325 109.55 47.7375 112.1 47.85C114.659 47.9625 115.475 47.9906 121.991 47.9906C128.506 47.9906 129.322 47.9625 131.881 47.85C134.431 47.7375 136.184 47.325 137.703 46.7344C139.278 46.125 140.619 45.3 141.95 43.9688C143.281 42.6375 144.106 41.2969 144.716 39.7219C145.306 38.1938 145.719 36.45 145.831 33.9C145.944 31.3406 145.972 30.525 145.972 24.0094C145.972 17.4938 145.944 16.6781 145.831 14.1188C145.719 11.5688 145.306 9.81563 144.716 8.29688C144.125 6.70312 143.309 5.3625 141.969 4.03125C140.638 2.7 139.297 1.875 137.722 1.26562C136.194 0.675 134.45 0.2625 131.9 0.15C129.331 0.028125 128.516 0 122 0Z" fill="#000100"/>
<path d="M122 11.6719C115.194 11.6719 109.672 17.1938 109.672 24C109.672 30.8062 115.194 36.3281 122 36.3281C128.806 36.3281 134.328 30.8062 134.328 24C134.328 17.1938 128.806 11.6719 122 11.6719ZM122 31.9969C117.584 31.9969 114.003 28.4156 114.003 24C114.003 19.5844 117.584 16.0031 122 16.0031C126.416 16.0031 129.997 19.5844 129.997 24C129.997 28.4156 126.416 31.9969 122 31.9969Z" fill="#000100"/>
<path d="M137.694 11.1844C137.694 12.7782 136.4 14.0625 134.816 14.0625C133.222 14.0625 131.938 12.7688 131.938 11.1844C131.938 9.59066 133.231 8.30628 134.816 8.30628C136.4 8.30628 137.694 9.60003 137.694 11.1844Z" fill="#000100"/>
<g clip-path="url(#clip0)">
<path d="M240.457 -1.78814e-06H199.543C198.604 -1.78814e-06 197.702 0.373313 197.038 1.03782C196.373 1.70232 196 2.60358 196 3.54333V44.4567C196 45.3964 196.373 46.2977 197.038 46.9622C197.702 47.6267 198.604 48 199.543 48H240.457C241.396 48 242.298 47.6267 242.962 46.9622C243.627 46.2977 244 45.3964 244 44.4567V3.54333C244 2.60358 243.627 1.70232 242.962 1.03782C242.298 0.373313 241.396 -1.78814e-06 240.457 -1.78814e-06ZM210.307 40.89H203.09V17.9667H210.307V40.89ZM206.693 14.79C205.875 14.7854 205.076 14.5384 204.397 14.0802C203.719 13.622 203.192 12.9731 202.882 12.2154C202.572 11.4577 202.493 10.6252 202.656 9.82291C202.819 9.02063 203.216 8.28455 203.796 7.70756C204.377 7.13057 205.116 6.73853 205.919 6.58092C206.722 6.42331 207.554 6.50719 208.31 6.82197C209.066 7.13675 209.711 7.66833 210.165 8.34962C210.619 9.03091 210.861 9.83138 210.86 10.65C210.868 11.1981 210.765 11.7421 210.558 12.2496C210.351 12.7571 210.044 13.2178 209.655 13.6041C209.266 13.9905 208.804 14.2946 208.295 14.4983C207.786 14.702 207.241 14.8012 206.693 14.79ZM236.907 40.91H229.693V28.3867C229.693 24.6933 228.123 23.5533 226.097 23.5533C223.957 23.5533 221.857 25.1667 221.857 28.48V40.91H214.64V17.9833H221.58V21.16H221.673C222.37 19.75 224.81 17.34 228.533 17.34C232.56 17.34 236.91 19.73 236.91 26.73L236.907 40.91Z" fill="#0A66C2"/>
</g>
<g clip-path="url(#clip1)">
<path d="M310 48C314.416 48 318 44.4159 318 39.9999V31.9999H310C305.584 31.9999 302 35.5839 302 39.9999C302 44.4159 305.584 48 310 48Z" fill="#0ACF83"/>
<path d="M302 24C302 19.584 305.584 15.9999 310 15.9999H318V31.9998H310C305.584 32 302 28.416 302 24Z" fill="#A259FF"/>
<path d="M302 8.00006C302 3.58406 305.584 0 310 0H318V15.9999H310C305.584 15.9999 302 12.4161 302 8.00006Z" fill="#F24E1E"/>
<path d="M318 0H326C330.416 0 334 3.58406 334 8.00006C334 12.4161 330.416 15.9999 326 15.9999H318V0Z" fill="#FF7262"/>
<path d="M334 24C334 28.416 330.416 32 326 32C321.584 32 318 28.416 318 24C318 19.584 321.584 15.9999 326 15.9999C330.416 15.9999 334 19.584 334 24Z" fill="#1ABCFE"/>
</g>
<path d="M416 47.25C428.841 47.25 439.25 36.8406 439.25 24C439.25 11.1594 428.841 0.75 416 0.75C403.159 0.75 392.75 11.1594 392.75 24C392.75 36.8406 403.159 47.25 416 47.25Z" fill="#EA4C89"/>
<path fill-rule="evenodd" clip-rule="evenodd" d="M416 0C402.751 0 392 10.7505 392 24C392 37.2495 402.751 48 416 48C429.223 48 440 37.2495 440 24C440 10.7505 429.223 0 416 0ZM431.852 11.0629C434.716 14.551 436.434 19.0021 436.486 23.8177C435.809 23.6877 429.041 22.308 422.221 23.1671C422.065 22.8287 421.935 22.4642 421.779 22.0998C421.362 21.1107 420.894 20.0955 420.425 19.1323C427.974 16.0608 431.41 11.6356 431.852 11.0629ZM416 3.54014C421.206 3.54014 425.97 5.49242 429.588 8.69415C429.223 9.21476 426.126 13.3536 418.837 16.0867C415.479 9.91756 411.757 4.86768 411.184 4.08676C412.72 3.72234 414.334 3.54014 416 3.54014ZM407.28 5.46637C407.826 6.19522 411.471 11.2712 414.881 17.3102C405.302 19.8612 396.842 19.8092 395.931 19.8092C397.258 13.4577 401.553 8.17353 407.28 5.46637ZM395.488 24.0261C395.488 23.8178 395.488 23.6095 395.488 23.4013C396.373 23.4273 406.317 23.5575 416.547 20.4859C417.145 21.6312 417.692 22.8026 418.213 23.9739C417.952 24.0521 417.666 24.1302 417.406 24.2082C406.837 27.6181 401.215 36.937 400.746 37.7179C397.492 34.0998 395.488 29.2842 395.488 24.0261ZM416 44.5119C411.262 44.5119 406.889 42.898 403.427 40.1908C403.792 39.436 407.957 31.4187 419.514 27.384C419.566 27.3579 419.592 27.3579 419.644 27.332C422.534 34.8026 423.705 41.0759 424.017 42.872C421.544 43.9392 418.837 44.5119 416 44.5119ZM427.427 40.9978C427.219 39.7483 426.126 33.7614 423.445 26.3948C429.874 25.3796 435.497 27.0456 436.2 27.2799C435.315 32.9805 432.035 37.9002 427.427 40.9978Z" fill="#C32361"/>
<path d="M15.095 43.5014C33.2083 43.5014 43.1155 28.4946 43.1155 15.4809C43.1155 15.0546 43.1155 14.6303 43.0867 14.2079C45.0141 12.8138 46.6778 11.0877 48 9.11033C46.2028 9.90713 44.2961 10.4294 42.3437 10.6598C44.3996 9.42915 45.9383 7.49333 46.6733 5.21273C44.7402 6.35994 42.6253 7.16838 40.4198 7.60313C38.935 6.02428 36.9712 4.97881 34.8324 4.6285C32.6935 4.27818 30.4988 4.64256 28.5879 5.66523C26.677 6.68791 25.1564 8.31187 24.2615 10.2858C23.3665 12.2598 23.1471 14.4737 23.6371 16.5849C19.7218 16.3885 15.8915 15.371 12.3949 13.5983C8.89831 11.8257 5.81353 9.33765 3.3408 6.29561C2.08146 8.4636 1.69574 11.0301 2.2622 13.4725C2.82865 15.9148 4.30468 18.0495 6.38976 19.4418C4.82246 19.3959 3.2893 18.9731 1.92 18.2092V18.334C1.92062 20.6077 2.7077 22.8112 4.14774 24.5707C5.58778 26.3303 7.59212 27.5375 9.8208 27.9878C8.37096 28.3832 6.84975 28.441 5.37408 28.1567C6.00363 30.1134 7.22886 31.8244 8.87848 33.0506C10.5281 34.2768 12.5197 34.9569 14.5747 34.9958C12.5329 36.6007 10.1946 37.7873 7.69375 38.4878C5.19287 39.1882 2.57843 39.3886 0 39.0777C4.50367 41.9677 9.74385 43.5007 15.095 43.4937" fill="#1DA1F2"/>
<g clip-path="url(#clip2)">
<path d="M514 48C527.255 48 538 37.2548 538 24C538 10.7452 527.255 0 514 0C500.745 0 490 10.7452 490 24C490 37.2548 500.745 48 514 48Z" fill="white"/>
<path d="M514 0C500.746 0 490 10.7457 490 24C490 34.1728 496.321 42.8642 505.249 46.3605C505.032 44.4642 504.854 41.5407 505.328 39.4667C505.763 37.5901 508.133 27.5358 508.133 27.5358C508.133 27.5358 507.422 26.0938 507.422 23.9802C507.422 20.642 509.358 18.1531 511.768 18.1531C513.822 18.1531 514.81 19.6938 514.81 21.5309C514.81 23.5852 513.506 26.6667 512.815 29.5309C512.242 31.921 514.02 33.8765 516.37 33.8765C520.637 33.8765 523.916 29.3728 523.916 22.8938C523.916 17.1457 519.788 13.1358 513.881 13.1358C507.047 13.1358 503.037 18.2519 503.037 23.5457C503.037 25.6 503.827 27.8123 504.815 29.0173C505.012 29.2543 505.032 29.4716 504.973 29.7086C504.795 30.4593 504.38 32.0988 504.301 32.4346C504.202 32.8691 503.946 32.9679 503.491 32.7506C500.489 31.3481 498.612 26.9827 498.612 23.4469C498.612 15.8815 504.104 8.9284 514.474 8.9284C522.79 8.9284 529.269 14.8543 529.269 22.7951C529.269 31.0716 524.054 37.7284 516.825 37.7284C514.395 37.7284 512.104 36.4642 511.333 34.963C511.333 34.963 510.128 39.5457 509.832 40.6716C509.299 42.7654 507.837 45.3728 506.849 46.9728C509.101 47.6642 511.472 48.0395 513.96 48.0395C527.215 48.0395 537.96 37.2938 537.96 24.0395C538 10.7457 527.254 0 514 0Z" fill="#E60019"/>
</g>
<defs>
<clipPath id="clip0">
<rect width="48" height="48" fill="white" transform="translate(196)"/>
</clipPath>
<clipPath id="clip1">
<rect width="48" height="48" fill="white" transform="translate(294)"/>
</clipPath>
<clipPath id="clip2">
<rect width="48" height="48" fill="white" transform="translate(490)"/>
</clipPath>
</defs>
</svg>
