<svg width="320" height="59" viewBox="0 0 320 59" fill="none" xmlns="http://www.w3.org/2000/svg">
<circle cx="28" cy="29" r="28" fill="#FB3640" fill-opacity="0.2"/>
<path d="M35.544 46H43.8L36.648 33.664C40.344 31.792 42.84 28.048 42.84 23.92C42.84 17.536 37.704 12.4 31.32 12.4H17.88V46H25.56V34.96H29.208L35.544 46ZM25.56 19.6H31.32C33.432 19.6 35.16 21.472 35.16 23.92C35.16 26.368 33.432 28.24 31.32 28.24H25.56V19.6ZM52.3845 36.88H69.4245C69.6165 35.968 69.7125 35.008 69.7125 34C69.7125 26.752 64.5285 21.328 57.5205 21.328C49.9365 21.328 44.7525 26.848 44.7525 34C44.7525 41.152 49.8405 46.672 58.0485 46.672C62.6085 46.672 66.1605 44.992 68.5125 41.728L62.7525 38.416C61.7925 39.472 60.1125 40.24 58.1445 40.24C55.5045 40.24 53.2965 39.376 52.3845 36.88ZM52.2405 31.504C52.9125 29.056 54.7365 27.712 57.4725 27.712C59.6325 27.712 61.7925 28.72 62.5605 31.504H52.2405ZM85.0819 46.672C89.7859 46.672 93.8659 44.224 95.9299 40.48L89.6419 36.88C88.8739 38.56 87.0979 39.568 84.9859 39.568C81.8659 39.568 79.5619 37.312 79.5619 34C79.5619 30.688 81.8659 28.432 84.9859 28.432C87.0979 28.432 88.8259 29.44 89.6419 31.12L95.9299 27.472C93.8659 23.776 89.7379 21.328 85.0819 21.328C77.7859 21.328 72.3619 26.848 72.3619 34C72.3619 41.152 77.7859 46.672 85.0819 46.672ZM104.791 36.88H121.831C122.023 35.968 122.119 35.008 122.119 34C122.119 26.752 116.935 21.328 109.927 21.328C102.343 21.328 97.1588 26.848 97.1588 34C97.1588 41.152 102.247 46.672 110.455 46.672C115.015 46.672 118.567 44.992 120.919 41.728L115.159 38.416C114.199 39.472 112.519 40.24 110.551 40.24C107.911 40.24 105.703 39.376 104.791 36.88ZM104.647 31.504C105.319 29.056 107.143 27.712 109.879 27.712C112.039 27.712 114.199 28.72 114.967 31.504H104.647ZM140.267 21.328C137.099 21.328 134.699 22.48 133.403 24.256V22H126.203V46H133.403V32.896C133.403 29.488 135.227 27.952 137.867 27.952C140.171 27.952 142.043 29.344 142.043 32.32V46H149.243V31.264C149.243 24.784 145.115 21.328 140.267 21.328ZM168.251 28.912V22H163.307V15.28L156.107 17.44V22H152.267V28.912H156.107V37.408C156.107 44.128 158.843 46.96 168.251 46V39.472C165.083 39.664 163.307 39.472 163.307 37.408V28.912H168.251ZM191.9 46H200.636L206.108 26.176L211.58 46H220.316L229.58 12.4H221.516L215.708 35.92L209.228 12.4H202.988L196.508 35.92L190.7 12.4H182.636L191.9 46ZM241.363 46.672C248.419 46.672 254.083 41.152 254.083 34C254.083 26.848 248.419 21.328 241.363 21.328C234.307 21.328 228.643 26.848 228.643 34C228.643 41.152 234.307 46.672 241.363 46.672ZM241.363 39.664C238.243 39.664 235.843 37.408 235.843 34C235.843 30.592 238.243 28.336 241.363 28.336C244.483 28.336 246.883 30.592 246.883 34C246.883 37.408 244.483 39.664 241.363 39.664ZM265.356 26.272V22H258.156V46H265.356V35.152C265.356 30.4 269.58 29.2 272.556 29.68V21.52C269.532 21.52 266.316 23.056 265.356 26.272ZM298.961 46L289.985 34L298.721 22H290.321L283.121 32.512V12.4H275.921V46H283.121V35.392L290.801 46H298.961ZM306.972 29.008C306.972 28.144 307.74 27.664 308.988 27.664C310.572 27.664 311.532 28.528 312.204 29.776L318.348 26.464C316.332 23.056 312.876 21.328 308.988 21.328C303.996 21.328 299.58 23.968 299.58 29.2C299.58 37.504 311.388 36.112 311.388 38.752C311.388 39.712 310.524 40.24 308.796 40.24C306.684 40.24 305.34 39.232 304.716 37.408L298.476 40.96C300.348 44.848 303.996 46.672 308.796 46.672C313.98 46.672 318.78 44.32 318.78 38.8C318.78 29.92 306.972 31.744 306.972 29.008Z" fill="#424642"/>
</svg>
